<?xml version="1.0" encoding="UTF-8" standalone="no"?>
<svg
   xmlns:dc="http://purl.org/dc/elements/1.1/"
   xmlns:cc="http://creativecommons.org/ns#"
   xmlns:rdf="http://www.w3.org/1999/02/22-rdf-syntax-ns#"
   xmlns:svg="http://www.w3.org/2000/svg"
   xmlns="http://www.w3.org/2000/svg"
   xmlns:sodipodi="http://sodipodi.sourceforge.net/DTD/sodipodi-0.dtd"
   xmlns:inkscape="http://www.inkscape.org/namespaces/inkscape"
   height="32px"
   style="enable-background:new 0 0 32 32;"
   version="1.1"
   viewBox="0 0 32 32"
   width="32px"
   xml:space="preserve"
   id="svg6"
   sodipodi:docname="iconfinder_wrench_118587.svg"
   inkscape:version="0.92.4 (5da689c313, 2019-01-14)"><metadata
     id="metadata12"><rdf:RDF><cc:Work
         rdf:about=""><dc:format>image/svg+xml</dc:format><dc:type
           rdf:resource="http://purl.org/dc/dcmitype/StillImage" /></cc:Work></rdf:RDF></metadata><defs
     id="defs10" /><sodipodi:namedview
     pagecolor="#ffffff"
     bordercolor="#666666"
     borderopacity="1"
     objecttolerance="10"
     gridtolerance="10"
     guidetolerance="10"
     inkscape:pageopacity="0"
     inkscape:pageshadow="2"
     inkscape:window-width="1680"
     inkscape:window-height="987"
     id="namedview8"
     showgrid="false"
     inkscape:zoom="7.375"
     inkscape:cx="-7.1186441"
     inkscape:cy="16"
     inkscape:window-x="-8"
     inkscape:window-y="13"
     inkscape:window-maximized="1"
     inkscape:current-layer="svg6" /><g
     id="Layer_1" /><g
     id="wrench"><path
       d="M 28.69615,7.5735966 24.609462,11.660284 H 20.338089 V 7.3221957 L 24.374333,3.2875781 C 23.779595,3.1077736 23.16045,2.98248 22.50876,2.98248 18.914297,2.98248 16,5.8984045 16,9.49124 c 0,1.002349 0.244892,1.940424 0.65169,2.790631 L 3.6178977,25.311595 C 3.2273721,25.706188 2.98248,26.246415 2.98248,26.850103 c 0,1.195171 0.9689916,2.167417 2.1706715,2.167417 0.6004331,0 1.1439145,-0.241638 1.5319993,-0.635418 L 19.721384,15.349938 C 20.566709,15.753481 21.508038,16 22.50876,16 c 3.594463,0 6.50876,-2.915924 6.50876,-6.50876 0,-0.6720295 -0.130175,-1.3074472 -0.32137,-1.9176434 z"
       style="fill:#333333;stroke-width:0.813595;fill-opacity:1"
       id="path3"
       inkscape:connector-curvature="0" /></g></svg>