<?xml version="1.0" encoding="UTF-8" standalone="no"?>
<svg
   xmlns:dc="http://purl.org/dc/elements/1.1/"
   xmlns:cc="http://creativecommons.org/ns#"
   xmlns:rdf="http://www.w3.org/1999/02/22-rdf-syntax-ns#"
   xmlns:svg="http://www.w3.org/2000/svg"
   xmlns="http://www.w3.org/2000/svg"
   xmlns:sodipodi="http://sodipodi.sourceforge.net/DTD/sodipodi-0.dtd"
   xmlns:inkscape="http://www.inkscape.org/namespaces/inkscape"
   width="24"
   height="24"
   viewBox="0 0 24 24"
   version="1.1"
   id="svg6"
   sodipodi:docname="round-person-24px.svg"
   inkscape:version="0.92.4 (5da689c313, 2019-01-14)">
  <metadata
     id="metadata12">
    <rdf:RDF>
      <cc:Work
         rdf:about="">
        <dc:format>image/svg+xml</dc:format>
        <dc:type
           rdf:resource="http://purl.org/dc/dcmitype/StillImage" />
        <dc:title></dc:title>
      </cc:Work>
    </rdf:RDF>
  </metadata>
  <defs
     id="defs10" />
  <sodipodi:namedview
     pagecolor="#ffffff"
     bordercolor="#666666"
     borderopacity="1"
     objecttolerance="10"
     gridtolerance="10"
     guidetolerance="10"
     inkscape:pageopacity="0"
     inkscape:pageshadow="2"
     inkscape:window-width="640"
     inkscape:window-height="480"
     id="namedview8"
     showgrid="false"
     inkscape:zoom="8"
     inkscape:cx="12.708683"
     inkscape:cy="13.230433"
     inkscape:window-x="39"
     inkscape:window-y="79"
     inkscape:window-maximized="0"
     inkscape:current-layer="svg6" />
  <path
     fill="none"
     d="M0 0h24v24H0V0z"
     id="path2" />
  <path
     d="M 19.088388,2.9722718 H 5.0883883 c -1.11,0 -2,0.9 -2,2 V 18.972272 c 0,1.1 0.9,2 2,2 h 4 l 2.2899997,2.29 c 0.39,0.39 1.02,0.39 1.41,0 l 2.3,-2.29 h 4 c 1.1,0 2,-0.9 2,-2 V 4.9722718 c 0,-1.1 -0.9,-2 -2,-2 z m -7,3.3 c 1.49,0 2.7,1.21 2.7,2.7 0,1.4900002 -1.21,2.7000002 -2.7,2.7000002 -1.49,0 -2.6999997,-1.21 -2.6999997,-2.7000002 0,-1.49 1.2099997,-2.7 2.6999997,-2.7 z m 6,10.7000002 H 6.0883883 v -0.9 c 0,-2 3.9999997,-3.1 5.9999997,-3.1 2,0 6,1.1 6,3.1 z"
     id="path4"
     inkscape:connector-curvature="0"
     fill="#333"
      />
  <rect
     style="fill:#ffffff"
     id="rect24"
     width="7.4402328"
     height="2.5857863"
     x="9.0883884"
     y="20.972273" />
</svg>
